<svg xmlns="http://www.w3.org/2000/svg" viewBox="0 0 1024 1024" role="img" aria-label="KKU Card API">
  <defs>
    <linearGradient id="bg" x1="0%" y1="0%" x2="100%" y2="100%">
      <stop offset="0%" stop-color="#234876"/>
      <stop offset="100%" stop-color="#1E3A5F"/>
    </linearGradient>
    <linearGradient id="card" x1="0%" y1="0%" x2="0%" y2="100%">
      <stop offset="0%" stop-color="#F8FAFC"/>
      <stop offset="100%" stop-color="#E2E8F0"/>
    </linearGradient>
    <filter id="shadow" x="-20%" y="-20%" width="140%" height="140%">
      <feDropShadow dx="0" dy="18" stdDeviation="24" flood-color="#0F172A" flood-opacity="0.35"/>
    </filter>
  </defs>
  <rect width="1024" height="1024" rx="224" fill="url(#bg)"/>
  <g filter="url(#shadow)">
    <rect x="212" y="248" width="600" height="380" rx="36" fill="url(#card)"/>
    <rect x="252" y="300" width="220" height="160" rx="18" fill="#CBD5E1"/>
    <rect x="252" y="300" width="220" height="160" rx="18" fill="#FDE68A" opacity="0.35"/>
    <g transform="translate(292 340)">
      <rect width="140" height="100" rx="12" fill="#EAB308" stroke="#CA8A04" stroke-width="4"/>
      <path d="M20 20h40v20H20zm60 0h40v20H80zM20 50h40v30H20zm60 0h40v30H80z" fill="#A16207" opacity="0.55"/>
    </g>
    <rect x="512" y="312" width="240" height="20" rx="10" fill="#94A3B8"/>
    <rect x="512" y="356" width="200" height="16" rx="8" fill="#CBD5E1"/>
    <rect x="512" y="396" width="260" height="16" rx="8" fill="#CBD5E1"/>
    <rect x="252" y="500" width="500" height="16" rx="8" fill="#CBD5E1"/>
    <rect x="252" y="540" width="420" height="16" rx="8" fill="#CBD5E1"/>
  </g>
  <circle cx="760" cy="760" r="108" fill="#10B981"/>
  <path d="M716 760l32 32 68-72" fill="none" stroke="#fff" stroke-width="28" stroke-linecap="round" stroke-linejoin="round"/>
  <g fill="none" stroke="#38BDF8" stroke-width="14" opacity="0.9">
    <path d="M148 560c48-72 120-108 196-108"/>
    <path d="M128 600c64-88 156-132 252-132"/>
    <path d="M108 640c80-104 196-156 308-156"/>
  </g>
</svg>
